<svg height="444pt" viewBox="0 -19 444.81519 444" width="444pt" xmlns="http://www.w3.org/2000/svg"><path d="m325.226562 259.886719 64.972657-48.578125c14.214843-11.226563 34.742187-9.296875 46.617187 4.378906l-126.867187 124.230469c-17.757813 13.019531-39.234375 19.980469-61.25 19.851562l-106.511719-7.792969c-9.800781-.710937-19.5 2.394532-27.070312 8.660157l-18.808594 15.28125-18.03125-103.058594.839844-.152344c25.757812-27.519531 64.738281-38.328125 100.992187-28.007812l6.667969 1.898437c10.425781 2.96875 21.382812 3.539063 32.058594 1.671875l59.570312-10.421875c18.695312-3.273437 37.429688 5.546875 46.820312 22.039063zm0 0" fill="#f7caa5"/><path d="m242.40625 8.40625c55.582031 0 100.640625 45.054688 100.640625 100.632812 0 55.582032-45.054687 100.640626-100.636719 100.636719-55.578125 0-100.636718-45.058593-100.632812-100.636719 0-55.578124 45.054687-100.628906 100.628906-100.632812zm0 0" fill="#00efd1"/><path d="m96.308594 375.917969 2.078125 11.917969-65.320313 11.433593-25.070312-143.332031 65.320312-11.429688 4.960938 28.351563zm0 0" fill="#00acea"/><g fill="#083863"><path d="m25.1875 400.648438c.761719 4.351562 4.90625 7.257812 9.257812 6.5l65.320313-11.433594c4.351563-.761719 7.261719-4.902344 6.5-9.253906l-1.273437-7.300782 15.226562-12.367187c5.972656-4.964844 13.636719-7.414063 21.382812-6.839844l106.511719 7.789063c.390625.027343.78125.023437 1.171875.023437 23.511719-.046875 46.402344-7.539063 65.390625-21.402344.308594-.222656.597657-.46875.867188-.734375l126.871093-124.230468c3.023438-2.960938 3.214844-7.765626.441407-10.960938-14.640625-16.894531-39.96875-19.304688-57.53125-5.480469l-58.257813 43.558594c-12.132812-14.726563-31.238281-21.808594-50.039062-18.554687l-59.570313 10.425781c-9.484375 1.652343-19.222656 1.144531-28.488281-1.484375l-6.671875-1.898438c-34.226563-9.832031-71.101563-2.179687-98.589844 20.464844l-2.507812-14.339844c-.761719-4.351562-4.90625-7.261718-9.257813-6.5l-65.320312 11.429688c-4.351563.761718-7.261719 4.90625-6.5 9.257812zm152.730469-148.257813 6.667969 1.902344c11.585937 3.285156 23.765624 3.917969 35.628906 1.855469l59.570312-10.417969c15.367188-2.667969 30.761719 4.578125 38.496094 18.125.769531 1.347656 1.453125 2.746093 2.042969 4.179687l-89.175781 15.601563c-4.089844.710937-6.957032 4.433593-6.601563 8.570312s3.820313 7.3125 7.972656 7.3125c.464844 0 .929688-.042969 1.386719-.121093l97.910156-17.132813c4.351563-.761719 7.261719-4.90625 6.5-9.261719-.636718-3.644531-1.65625-7.214844-3.035156-10.648437l59.707031-44.640625.167969-.128906c8.617188-6.824219 20.609375-7.457032 29.898438-1.578126l-120.289063 117.820313c-16.152344 11.660156-35.554687 17.957031-55.476563 18.007813h-.28125l-106.242187-7.796876c-11.832031-.890624-23.550781 2.839844-32.691406 10.410157l-8.234375 6.679687-14.875-85.015625c23.710937-23.925781 58.578125-33.019531 90.953125-23.722656zm-111.101563 1.375 21.613282 123.53125.699218 4.039063-49.5625 8.671874-22.308594-127.570312zm0 0"/><path d="m242.40625 217.675781c60 .003907 108.640625-48.628906 108.640625-108.628906.003906-59.996094-48.632813-108.636719-108.628906-108.640625-59.996094 0-108.636719 48.632812-108.640625 108.632812.066406 59.96875 48.660156 108.566407 108.628906 108.636719zm0-201.269531c51.164062 0 92.640625 41.472656 92.640625 92.632812 0 51.164063-41.472656 92.640626-92.636719 92.636719-51.160156 0-92.636718-41.476562-92.632812-92.636719.058594-51.136718 41.496094-92.574218 92.628906-92.632812zm0 0"/><path d="m236.816406 125.835938h44.75c4.417969 0 8-3.578126 8-8 0-4.417969-3.582031-8-8-8h-37.160156v-51.148438c0-4.417969-3.582031-8-8-8s-8 3.582031-8 8v58.75c.160156 4.574219 3.835938 8.246094 8.410156 8.398438zm0 0"/></g></svg>